<svg width="123" height="112" viewBox="0 0 123 112" fill="none" xmlns="http://www.w3.org/2000/svg">
<path fill-rule="evenodd" clip-rule="evenodd" d="M50.21 38.5699C53.6042 38.5779 56.9199 39.5916 59.7382 41.483C62.5565 43.3745 64.751 46.0588 66.0445 49.1969C67.3379 52.335 67.6722 55.7861 67.0052 59.1141C66.3382 62.4421 64.6998 65.4978 62.2969 67.895C59.894 70.2923 56.8346 71.9236 53.505 72.5829C50.1755 73.2422 46.7252 72.8998 43.5901 71.5991C40.455 70.2984 37.7758 68.0976 35.8909 65.2749C34.006 62.4522 33 59.1341 33 55.7399C33 53.4818 33.4454 51.2458 34.3108 49.16C35.1762 47.0742 36.4445 45.1797 38.0431 43.5848C39.6417 41.9899 41.5393 40.726 43.627 39.8654C45.7148 39.0049 47.9518 38.5647 50.21 38.5699V38.5699ZM91.31 93.9999V85.2799H67.46C69.5316 83.4069 71.4201 81.3409 73.1 79.1099H94.38C95.1943 79.1126 95.9747 79.4365 96.5515 80.0114C97.1282 80.5863 97.4547 81.3656 97.46 82.1799V93.9999C99.4489 94.723 101.119 96.1237 102.178 97.9561C103.237 99.7885 103.616 101.935 103.249 104.02C102.881 106.104 101.792 107.992 100.171 109.352C98.5498 110.713 96.5012 111.458 94.385 111.458C92.2688 111.458 90.2203 110.713 88.5993 109.352C86.9783 107.992 85.8885 106.104 85.5214 104.02C85.1544 101.935 85.5334 99.7885 86.592 97.9561C87.6507 96.1237 89.3211 94.723 91.31 93.9999V93.9999ZM89.16 30.7099H75.51C74.1848 28.532 72.676 26.4712 71 24.5499H86.09V17.5499C84.0942 16.8463 82.4102 15.4619 81.3338 13.6399C80.2573 11.8179 79.8574 9.67491 80.2041 7.58731C80.5509 5.49971 81.6222 3.60106 83.2298 2.2249C84.8374 0.84874 86.8786 0.0830852 88.9947 0.0624404C91.1108 0.0417955 93.1665 0.767481 94.8007 2.11202C96.4348 3.45655 97.543 5.33394 97.9304 7.41437C98.3178 9.49481 97.9597 11.6452 96.9191 13.4879C95.8784 15.3305 94.2217 16.7475 92.24 17.4899V27.6399C92.24 28.0439 92.1603 28.444 92.0054 28.8171C91.8505 29.1902 91.6234 29.5291 91.3373 29.8143C91.0512 30.0995 90.7115 30.3254 90.3379 30.4791C89.9643 30.6328 89.564 30.7113 89.16 30.7099V30.7099ZM122.88 14.9999C122.876 13.3807 122.435 11.7925 121.603 10.4029C120.772 9.01326 119.581 7.87367 118.156 7.10424C116.732 6.33481 115.126 5.96405 113.508 6.03103C111.89 6.09801 110.32 6.60026 108.964 7.48483C107.607 8.3694 106.515 9.60352 105.801 11.0571C105.087 12.5107 104.779 14.1299 104.909 15.744C105.039 17.3581 105.601 18.9073 106.538 20.2283C107.474 21.5493 108.75 22.5932 110.23 23.2499V41.2499H80.12C80.6918 43.2699 81.1162 45.3286 81.39 47.4099H113.3C114.114 47.4047 114.894 47.0782 115.469 46.5014C116.043 45.9247 116.367 45.1443 116.37 44.3299V23.6699C118.25 23.1287 119.902 21.9896 121.077 20.4252C122.252 18.8608 122.885 16.9563 122.88 14.9999ZM122.73 64.9299C122.752 62.7975 122.017 60.7264 120.655 59.0857C119.292 57.445 117.392 56.3414 115.291 55.9715C113.191 55.6017 111.028 55.9896 109.187 57.0662C107.346 58.1428 105.947 59.8381 105.24 61.8499H80.88C80.4568 63.9411 79.8751 65.997 79.14 67.9999H105.24C105.947 70.0109 107.345 71.7056 109.185 72.7822C111.025 73.8588 113.187 74.2475 115.286 73.8789C117.386 73.5104 119.287 72.4086 120.65 70.7698C122.013 69.131 122.75 67.0615 122.73 64.9299V64.9299ZM49.56 105.3H46C44.3794 105.297 42.8258 104.653 41.679 103.508C40.5321 102.363 39.8853 100.811 39.88 99.1899V92.9299C36.3856 92.1461 33.0192 90.8735 29.88 89.1499L25.7 93.3299C24.5512 94.4737 22.9961 95.1158 21.375 95.1158C19.7539 95.1158 18.1988 94.4737 17.05 93.3299L12 88.2399C10.8587 87.0899 10.2182 85.5352 10.2182 83.9149C10.2182 82.2947 10.8587 80.74 12 79.5899L15.81 75.7799C13.8155 72.5776 12.309 69.0961 11.34 65.4499H6.12001C4.49942 65.4473 2.94582 64.8031 1.79896 63.6581C0.652092 62.5131 0.00529342 60.9605 8.17064e-06 59.3399V52.1399C-0.00130612 51.3349 0.15595 50.5376 0.462798 49.7933C0.769645 49.0491 1.22008 48.3726 1.78837 47.8025C2.35667 47.2323 3.03169 46.7797 3.77492 46.4704C4.51814 46.1611 5.315 46.0013 6.12001 45.9999H11.24C12.1893 42.3174 13.6859 38.7982 15.68 35.5599L12 31.8799C10.8617 30.7303 10.2232 29.1778 10.2232 27.5599C10.2232 25.9421 10.8617 24.3896 12 23.2399L17.09 18.1499C18.2388 17.0062 19.7939 16.3641 21.415 16.3641C23.0361 16.3641 24.5912 17.0062 25.74 18.1499L29.74 22.1499C32.9143 20.3823 36.3257 19.079 39.87 18.2799V12.2799C39.8779 10.6594 40.5273 9.10788 41.676 7.96476C42.8248 6.82165 44.3794 6.17993 46 6.17995H53.19C54.7548 6.19071 56.2563 6.79951 57.3867 7.88159C58.5171 8.96367 59.1909 10.4371 59.27 11.9999V32.4799C56.5684 31.4966 53.715 30.9957 50.84 30.9999C50.41 30.9999 49.98 30.9999 49.56 30.9999C49.14 30.9999 48.71 30.9999 48.29 30.9999C45.0171 30.934 41.7639 31.5216 38.7209 32.7285C35.6779 33.9354 32.9063 35.7372 30.5683 38.0285C28.2303 40.3199 26.373 43.0546 25.105 46.0726C23.8371 49.0907 23.1839 52.3314 23.1839 55.6049C23.1839 58.8785 23.8371 62.1192 25.105 65.1372C26.373 68.1553 28.2303 70.89 30.5683 73.1814C32.9063 75.4727 35.6779 77.2745 38.7209 78.4814C41.7639 79.6883 45.0171 80.2759 48.29 80.2099C48.71 80.2099 49.14 80.2099 49.56 80.2099C49.98 80.2099 50.41 80.2099 50.84 80.2099C53.715 80.2142 56.5684 79.7133 59.27 78.7299V99.4799C59.1906 101.048 58.5126 102.526 57.3758 103.609C56.239 104.691 54.73 105.297 53.16 105.3H49.56Z" fill="#BDFB2C"/>
</svg>
