<svg width="533" height="392" viewBox="0 0 533 392" fill="none" xmlns="http://www.w3.org/2000/svg">
<g clip-path="url(#clip0_70_7)">
<path opacity="0.1" d="M5.75705 208.615C14.191 244.618 32.0451 275.739 60.2619 290.824C118.901 322.174 251.148 306.006 349.848 287.428C399.722 278.072 444.992 252.225 478.369 214.05L5.75705 208.615Z" fill="#BDFB2C"/>
<path opacity="0.1" d="M523.332 39.1612H469.177C467.936 39.1612 466.745 38.6686 465.867 37.7919C464.989 36.9152 464.496 35.7261 464.496 34.4862C464.496 33.2463 464.989 32.0572 465.867 31.1805C466.745 30.3038 467.936 29.8112 469.177 29.8112H478.539C477.297 29.8112 476.107 29.3187 475.229 28.4419C474.351 27.5652 473.858 26.3761 473.858 25.1362C473.858 23.8963 474.351 22.7072 475.229 21.8305C476.107 20.9538 477.297 20.4612 478.539 20.4612H471.854C470.612 20.4612 469.422 19.9687 468.544 19.092C467.666 18.2152 467.173 17.0261 467.173 15.7863C467.173 14.5464 467.666 13.3573 468.544 12.4805C469.422 11.6038 470.612 11.1113 471.854 11.1113H500.119C493.847 8.20002 486.516 6.12818 478.072 5.04132C401.001 -4.84723 373.484 1.69338 363.777 8.43778C351.801 16.7348 338.441 22.8388 324.163 25.7791C276.61 35.5755 187.68 47.3661 107.076 22.0042C67.0149 9.38879 37.2386 30.6991 19.3942 66.294H532.733C532.062 55.9494 530.056 46.4005 526.373 38.0355C525.527 38.7628 524.448 39.1623 523.332 39.1612Z" fill="#BDFB2C"/>
<path opacity="0.1" d="M1.16112 133.481C-0.919145 154.418 -0.213418 175.539 3.25989 196.291L478.728 213.657C491.964 198.451 503.077 181.525 511.765 163.341L1.16112 133.481ZM189.215 178.29H179.853C181.094 178.29 182.285 178.782 183.163 179.659C184.041 180.536 184.534 181.725 184.534 182.965C184.534 184.205 184.041 185.394 183.163 186.271C182.285 187.147 181.094 187.64 179.853 187.64H125.698C124.456 187.64 123.266 187.147 122.388 186.271C121.51 185.394 121.017 184.205 121.017 182.965C121.017 181.725 121.51 180.536 122.388 179.659C123.266 178.782 124.456 178.29 125.698 178.29H135.06C133.818 178.29 132.628 177.797 131.75 176.921C130.872 176.044 130.379 174.855 130.379 173.615C130.379 172.375 130.872 171.186 131.75 170.309C132.628 169.432 133.818 168.94 135.06 168.94H128.375C127.133 168.94 125.943 168.447 125.065 167.571C124.187 166.694 123.694 165.505 123.694 164.265C123.694 163.025 124.187 161.836 125.065 160.959C125.943 160.082 127.133 159.59 128.375 159.59H182.53C183.771 159.59 184.962 160.082 185.84 160.959C186.718 161.836 187.211 163.025 187.211 164.265C187.211 165.505 186.718 166.694 185.84 167.571C184.962 168.447 183.771 168.94 182.53 168.94H189.215C190.456 168.94 191.647 169.432 192.525 170.309C193.403 171.186 193.896 172.375 193.896 173.615C193.896 174.855 193.403 176.044 192.525 176.921C191.647 177.797 190.456 178.29 189.215 178.29V178.29Z" fill="#BDFB2C"/>
<path opacity="0.1" d="M532.757 66.6143L13.6566 79.2297C7.34569 95.4357 3.18217 113.762 1.23886 132.763H523.662C527.073 121.604 529.596 110.194 531.207 98.638C532.762 87.4685 533.384 76.6726 532.757 66.6143ZM106.624 107.935H97.2624C98.5039 107.935 99.6945 108.427 100.572 109.304C101.45 110.181 101.943 111.37 101.943 112.61C101.943 113.849 101.45 115.039 100.572 115.915C99.6945 116.792 98.5039 117.285 97.2624 117.285H43.1074C41.8659 117.285 40.6753 116.792 39.7974 115.915C38.9196 115.039 38.4264 113.849 38.4264 112.61C38.4264 111.37 38.9196 110.181 39.7974 109.304C40.6753 108.427 41.8659 107.935 43.1074 107.935H52.4692C51.2278 107.935 50.0372 107.442 49.1593 106.565C48.2815 105.689 47.7883 104.5 47.7883 103.26C47.7883 102.02 48.2815 100.831 49.1593 99.9539C50.0372 99.0772 51.2278 98.5847 52.4692 98.5847H45.7843C44.5428 98.5847 43.3522 98.0921 42.4743 97.2154C41.5965 96.3387 41.1033 95.1496 41.1033 93.9097C41.1033 92.6698 41.5965 91.4807 42.4743 90.604C43.3522 89.7272 44.5428 89.2347 45.7843 89.2347H99.9393C101.181 89.2347 102.371 89.7272 103.249 90.604C104.127 91.4807 104.62 92.6698 104.62 93.9097C104.62 95.1496 104.127 96.3387 103.249 97.2154C102.371 98.0921 101.181 98.5847 99.9393 98.5847H106.624C107.866 98.5847 109.056 99.0772 109.934 99.9539C110.812 100.831 111.305 102.02 111.305 103.26C111.305 104.5 110.812 105.689 109.934 106.565C109.056 107.442 107.866 107.935 106.624 107.935V107.935Z" fill="#BDFB2C"/>
<g opacity="0.1">
<path opacity="0.1" d="M329.172 302.421C329.172 302.421 342.872 268.699 368.455 256.19C379.224 251.018 388.022 242.497 393.529 231.905C396.101 226.852 398.204 221.573 399.811 216.136" stroke="#535461" stroke-width="2" stroke-miterlimit="10"/>
<path opacity="0.1" d="M415.887 208.154C413.22 211.502 399.417 216.403 399.417 216.403C399.417 216.403 401.079 201.847 403.746 198.523C405.07 197.053 406.906 196.143 408.879 195.979C410.852 195.815 412.813 196.409 414.363 197.639C415.912 198.87 416.933 200.645 417.217 202.601C417.501 204.558 417.027 206.549 415.892 208.169L415.887 208.154Z" fill="#BDFB2C"/>
<path opacity="0.1" d="M411.15 234.676C407.088 236.039 392.844 232.648 392.844 232.648C392.844 232.648 402.148 221.352 406.209 219.989C408.117 219.483 410.147 219.722 411.886 220.656C413.624 221.591 414.942 223.151 415.571 225.02C416.199 226.889 416.092 228.927 415.271 230.721C414.45 232.514 412.977 233.928 411.15 234.676V234.676Z" fill="#BDFB2C"/>
<path opacity="0.1" d="M385.469 266.02C381.276 265.152 370.69 255.04 370.69 255.04C370.69 255.04 384.429 249.979 388.627 250.848C390.526 251.377 392.154 252.607 393.179 254.288C394.205 255.97 394.552 257.979 394.151 259.907C393.749 261.835 392.629 263.538 391.017 264.673C389.405 265.807 387.422 266.287 385.469 266.016V266.02Z" fill="#BDFB2C"/>
<path opacity="0.1" d="M360.692 285.371C356.412 285.22 344.266 277.044 344.266 277.044C344.266 277.044 356.956 269.752 361.236 269.888C362.3 269.854 363.359 270.04 364.348 270.432C365.337 270.824 366.235 271.415 366.986 272.168C367.737 272.921 368.325 273.82 368.714 274.809C369.103 275.799 369.285 276.857 369.247 277.919C369.21 278.982 368.955 280.025 368.497 280.984C368.04 281.944 367.39 282.8 366.588 283.498C365.786 284.197 364.849 284.723 363.834 285.045C362.82 285.368 361.751 285.478 360.692 285.371V285.371Z" fill="#BDFB2C"/>
<path opacity="0.1" d="M379.581 223.172C380.13 227.417 389.404 238.732 389.404 238.732C389.404 238.732 395.511 225.438 394.967 221.192C394.587 219.258 393.485 217.54 391.884 216.387C390.283 215.234 388.303 214.733 386.346 214.985C384.388 215.237 382.6 216.223 381.343 217.743C380.087 219.264 379.457 221.204 379.581 223.172Z" fill="#BDFB2C"/>
<path opacity="0.1" d="M350.888 246.166C352.681 250.047 364.923 258.078 364.923 258.078C364.923 258.078 366.77 243.565 364.977 239.683C364.595 238.693 364.014 237.791 363.269 237.033C362.524 236.276 361.632 235.679 360.647 235.28C359.662 234.881 358.605 234.687 357.543 234.712C356.48 234.737 355.434 234.979 354.468 235.423C353.503 235.867 352.639 236.505 351.931 237.296C351.222 238.087 350.683 239.015 350.347 240.022C350.012 241.03 349.887 242.095 349.98 243.152C350.073 244.21 350.382 245.237 350.888 246.171V246.166Z" fill="#BDFB2C"/>
<path opacity="0.1" d="M326.072 272.338C327.18 276.472 337.892 286.448 337.892 286.448C337.892 286.448 342.167 272.459 341.055 268.325C340.419 266.461 339.097 264.907 337.357 263.98C335.617 263.052 333.589 262.82 331.684 263.33C329.779 263.84 328.139 265.055 327.097 266.727C326.055 268.4 325.689 270.406 326.072 272.338Z" fill="#BDFB2C"/>
<path opacity="0.25" d="M415.887 208.154C413.22 211.502 399.417 216.403 399.417 216.403C399.417 216.403 401.079 201.847 403.746 198.523C405.07 197.053 406.906 196.143 408.879 195.979C410.852 195.815 412.813 196.409 414.363 197.639C415.912 198.87 416.933 200.645 417.217 202.601C417.501 204.558 417.027 206.549 415.892 208.169L415.887 208.154Z" fill="black"/>
<path opacity="0.25" d="M411.15 234.676C407.088 236.039 392.844 232.648 392.844 232.648C392.844 232.648 402.148 221.352 406.209 219.989C408.117 219.483 410.147 219.722 411.886 220.656C413.624 221.591 414.942 223.151 415.571 225.02C416.199 226.889 416.092 228.927 415.271 230.721C414.45 232.514 412.977 233.928 411.15 234.676V234.676Z" fill="black"/>
<path opacity="0.25" d="M385.469 266.02C381.276 265.152 370.69 255.04 370.69 255.04C370.69 255.04 384.429 249.979 388.627 250.848C390.526 251.377 392.154 252.607 393.179 254.288C394.205 255.97 394.552 257.979 394.151 259.907C393.749 261.835 392.629 263.538 391.017 264.673C389.405 265.807 387.422 266.287 385.469 266.016V266.02Z" fill="black"/>
<path opacity="0.25" d="M360.692 285.371C356.412 285.22 344.266 277.044 344.266 277.044C344.266 277.044 356.956 269.752 361.236 269.888C362.3 269.854 363.359 270.04 364.348 270.432C365.337 270.824 366.235 271.415 366.986 272.168C367.737 272.921 368.325 273.82 368.714 274.809C369.103 275.799 369.285 276.857 369.247 277.919C369.21 278.982 368.955 280.025 368.497 280.984C368.04 281.944 367.39 282.8 366.588 283.498C365.786 284.197 364.849 284.723 363.834 285.045C362.82 285.368 361.751 285.478 360.692 285.371V285.371Z" fill="black"/>
<path opacity="0.25" d="M379.581 223.172C380.13 227.417 389.404 238.732 389.404 238.732C389.404 238.732 395.511 225.438 394.967 221.192C394.587 219.258 393.485 217.54 391.884 216.387C390.283 215.234 388.303 214.733 386.346 214.985C384.388 215.237 382.6 216.223 381.343 217.743C380.087 219.264 379.457 221.204 379.581 223.172Z" fill="black"/>
<path opacity="0.25" d="M350.888 246.166C352.681 250.047 364.923 258.078 364.923 258.078C364.923 258.078 366.77 243.565 364.977 239.683C364.595 238.693 364.014 237.791 363.269 237.033C362.524 236.276 361.632 235.679 360.647 235.28C359.662 234.881 358.605 234.687 357.543 234.712C356.48 234.737 355.434 234.979 354.468 235.423C353.503 235.867 352.639 236.505 351.931 237.296C351.222 238.087 350.683 239.015 350.347 240.022C350.012 241.03 349.887 242.095 349.98 243.152C350.073 244.21 350.382 245.237 350.888 246.171V246.166Z" fill="black"/>
<path opacity="0.25" d="M326.072 272.338C327.18 276.472 337.892 286.448 337.892 286.448C337.892 286.448 342.167 272.459 341.055 268.325C340.419 266.461 339.097 264.907 337.357 263.98C335.617 263.052 333.589 262.82 331.684 263.33C329.779 263.84 328.139 265.055 327.097 266.727C326.055 268.4 325.689 270.406 326.072 272.338Z" fill="black"/>
</g>
<g opacity="0.1">
<path opacity="0.1" d="M319.455 253.114C319.455 253.114 321.185 216.762 341.167 196.485C349.594 188.031 355.049 177.075 356.713 165.262C357.462 159.647 357.695 153.976 357.408 148.319" stroke="#535461" stroke-width="2" stroke-miterlimit="10"/>
<path opacity="0.1" d="M369.981 135.465C368.577 139.507 357.179 148.692 357.179 148.692C357.179 148.692 353.924 134.432 355.328 130.39C355.607 129.362 356.094 128.402 356.76 127.57C357.426 126.738 358.256 126.052 359.198 125.554C360.141 125.056 361.176 124.758 362.24 124.676C363.303 124.595 364.372 124.733 365.379 125.082C366.387 125.431 367.311 125.984 368.096 126.705C368.881 127.426 369.508 128.301 369.94 129.275C370.372 130.249 370.598 131.301 370.605 132.366C370.612 133.431 370.4 134.486 369.981 135.465V135.465Z" fill="#BDFB2C"/>
<path opacity="0.1" d="M374.295 162.035C370.894 164.665 356.349 166.189 356.349 166.189C356.349 166.189 361.377 152.448 364.753 149.818C365.548 149.112 366.479 148.577 367.488 148.245C368.498 147.913 369.565 147.792 370.623 147.888C371.682 147.984 372.709 148.296 373.642 148.805C374.575 149.313 375.394 150.008 376.048 150.845C376.702 151.682 377.176 152.644 377.443 153.672C377.71 154.699 377.763 155.77 377.598 156.819C377.434 157.868 377.056 158.872 376.488 159.769C375.92 160.666 375.174 161.438 374.295 162.035V162.035Z" fill="#BDFB2C"/>
<path opacity="0.1" d="M360.473 200.134C356.227 200.702 342.886 194.671 342.886 194.671C342.886 194.671 354.172 185.345 358.433 184.777C359.475 184.568 360.55 184.575 361.589 184.797C362.629 185.02 363.612 185.453 364.477 186.069C365.343 186.686 366.072 187.474 366.621 188.383C367.169 189.293 367.525 190.305 367.666 191.358C367.808 192.41 367.731 193.481 367.442 194.502C367.152 195.524 366.656 196.476 365.984 197.298C365.311 198.121 364.477 198.797 363.533 199.285C362.588 199.772 361.554 200.061 360.493 200.134H360.473Z" fill="#BDFB2C"/>
<path opacity="0.1" d="M343.523 226.592C339.432 227.868 325.261 224.166 325.261 224.166C325.261 224.166 334.802 213.07 338.893 211.794C340.813 211.326 342.839 211.606 344.559 212.576C346.279 213.547 347.565 215.135 348.155 217.019C348.744 218.902 348.594 220.939 347.733 222.716C346.873 224.493 345.367 225.875 343.523 226.583V226.592Z" fill="#BDFB2C"/>
<path opacity="0.1" d="M340.691 161.657C342.634 165.48 355.129 173.084 355.129 173.084C355.129 173.084 356.475 158.527 354.551 154.694C353.553 152.991 351.943 151.731 350.048 151.171C348.153 150.611 346.115 150.793 344.35 151.68C342.584 152.567 341.223 154.092 340.543 155.945C339.864 157.799 339.916 159.841 340.691 161.657V161.657Z" fill="#BDFB2C"/>
<path opacity="0.1" d="M321.257 192.856C324.24 195.927 338.456 199.445 338.456 199.445C338.456 199.445 335.38 185.146 332.397 182.075C330.935 180.746 329.02 180.024 327.044 180.055C325.067 180.087 323.176 180.869 321.757 182.244C320.337 183.618 319.495 185.481 319.403 187.454C319.31 189.426 319.973 191.359 321.257 192.861V192.856Z" fill="#BDFB2C"/>
<path opacity="0.1" d="M306.537 225.763C308.966 229.295 322.375 235.161 322.375 235.161C322.375 235.161 321.763 220.547 319.343 217.014C318.119 215.484 316.361 214.472 314.422 214.181C312.482 213.891 310.504 214.343 308.884 215.448C307.265 216.553 306.123 218.229 305.689 220.139C305.254 222.049 305.559 224.053 306.542 225.748L306.537 225.763Z" fill="#BDFB2C"/>
</g>
<path opacity="0.1" d="M145.622 376.405C164.724 382.82 188.029 378.919 209.702 379.37C212.67 379.433 215.809 379.617 218.189 380.724C220.57 381.83 221.741 383.635 223.373 385.163C229.446 390.884 241.888 392.723 252.766 391.753C263.643 390.782 273.617 387.57 283.859 385.125C301.601 380.894 321.884 378.972 339.384 383.582C340.992 384.004 342.682 384.489 344.402 384.324C348.24 383.946 349.382 380.879 352.064 379.127C356.922 375.964 367.43 376.823 369.553 372.655C370.802 370.229 367.931 367.706 364.807 366.036C352.846 359.651 335.735 358.598 320.082 359.583C304.428 360.568 289.037 363.285 273.302 363.295C253.698 363.295 234.756 359.127 215.343 357.419C201.895 356.235 187.218 356.381 174.611 359.845C160.983 363.64 157.971 372.102 145.622 376.405Z" fill="#BDFB2C"/>
<path d="M180.975 89.7151H177.574V137.751H180.975V89.7151Z" fill="#535461"/>
<path d="M180.975 154.248H177.574V181.419H180.975V154.248Z" fill="#535461"/>
<path d="M310.156 42.6498H202.886C190.248 42.6498 180.004 52.8816 180.004 65.5032V351.679C180.004 364.301 190.248 374.532 202.886 374.532H310.156C322.794 374.532 333.039 364.301 333.039 351.679V65.5032C333.039 52.8816 322.794 42.6498 310.156 42.6498Z" fill="#535461"/>
<path d="M310.156 58.1765H202.886C190.248 58.1765 180.004 68.4083 180.004 81.0298V337.608C180.004 350.23 190.248 360.461 202.886 360.461H310.156C322.794 360.461 333.039 350.23 333.039 337.608V81.0298C333.039 68.4083 322.794 58.1765 310.156 58.1765Z" fill="#BDFB2C"/>
<path d="M267.695 49.928H245.833C244.894 49.928 244.133 50.6883 244.133 51.6262C244.133 52.5641 244.894 53.3244 245.833 53.3244H267.695C268.634 53.3244 269.396 52.5641 269.396 51.6262C269.396 50.6883 268.634 49.928 267.695 49.928Z" fill="#EAEAF3"/>
<path d="M278.14 54.2948C279.482 54.2948 280.569 53.2087 280.569 51.8688C280.569 50.5289 279.482 49.4428 278.14 49.4428C276.799 49.4428 275.711 50.5289 275.711 51.8688C275.711 53.2087 276.799 54.2948 278.14 54.2948Z" fill="#EAEAF3"/>
<path d="M216.829 192.191V227.611C216.841 228.722 216.632 229.824 216.214 230.853C215.796 231.882 215.178 232.818 214.394 233.607C213.611 234.395 212.678 235.02 211.651 235.445C210.624 235.87 209.522 236.087 208.41 236.083C203.726 236.083 199.179 232.294 199.179 227.611V192.191C199.179 187.572 203.712 183.782 208.41 183.782C210.64 183.791 212.776 184.68 214.353 186.255C215.93 187.83 216.82 189.964 216.829 192.191V192.191ZM220.138 240.198C220.135 241.387 220.368 242.565 220.822 243.664C221.276 244.763 221.944 245.761 222.786 246.602C223.628 247.443 224.627 248.109 225.728 248.563C226.828 249.017 228.008 249.249 229.198 249.247H235.29L235.383 267.932C235.383 279.213 252.285 279.126 252.285 267.932V249.252H263.672V267.937C263.672 279.16 280.676 279.189 280.676 267.937V249.252H286.861C288.047 249.248 289.221 249.011 290.315 248.554C291.409 248.097 292.403 247.429 293.239 246.589C294.075 245.749 294.737 244.752 295.187 243.657C295.637 242.561 295.867 241.387 295.863 240.202V185.325H220.138V240.198ZM296.067 182.375H219.793C219.793 169.275 227.629 157.911 239.265 151.982L233.435 141.186C232.58 139.687 234.751 138.76 235.485 140.026L241.426 150.914C246.654 148.63 252.299 147.451 258.005 147.451C263.712 147.451 269.356 148.63 274.584 150.914L280.492 140.06C281.259 138.745 283.407 139.726 282.542 141.22L276.712 151.982C288.231 157.911 296.067 169.289 296.067 182.375ZM243.802 165.393C243.802 164.541 243.463 163.724 242.86 163.122C242.257 162.519 241.439 162.181 240.586 162.181C239.755 162.213 238.969 162.565 238.393 163.164C237.817 163.762 237.495 164.56 237.495 165.391C237.495 166.221 237.817 167.019 238.393 167.617C238.969 168.216 239.755 168.568 240.586 168.6C241.436 168.6 242.252 168.264 242.855 167.665C243.458 167.065 243.798 166.252 243.802 165.403V165.393ZM278.524 165.393C278.514 164.768 278.319 164.159 277.964 163.644C277.608 163.13 277.107 162.732 276.525 162.501C275.943 162.271 275.305 162.217 274.693 162.349C274.081 162.48 273.521 162.789 273.085 163.238C272.648 163.686 272.355 164.254 272.242 164.869C272.128 165.484 272.2 166.119 272.448 166.694C272.696 167.268 273.108 167.756 273.634 168.096C274.159 168.437 274.774 168.614 275.4 168.605C276.237 168.586 277.033 168.24 277.617 167.641C278.201 167.042 278.527 166.239 278.524 165.403V165.393ZM307.547 183.773C306.441 183.77 305.345 183.985 304.322 184.406C303.299 184.828 302.369 185.447 301.587 186.228C300.804 187.01 300.184 187.938 299.762 188.96C299.34 189.981 299.125 191.076 299.128 192.181V227.602C299.124 228.71 299.338 229.809 299.759 230.834C300.179 231.86 300.798 232.793 301.58 233.58C302.362 234.366 303.291 234.992 304.315 235.419C305.339 235.847 306.437 236.07 307.547 236.073C312.265 236.073 316.778 232.284 316.778 227.602V192.181C316.763 187.485 312.231 183.782 307.547 183.782V183.773Z" fill="#535461"/>
<path d="M252.149 276.307H220.57V277.763H252.149V276.307Z" fill="#535461"/>
<path d="M284.699 276.307H263.809V277.763H284.699V276.307Z" fill="#535461"/>
<path d="M213.768 276.307H192.878V277.763H213.768V276.307Z" fill="#535461"/>
<path d="M317.735 276.307H296.845V277.763H317.735V276.307Z" fill="#535461"/>
</g>
<defs>
<clipPath id="clip0_70_7">
<rect width="533" height="392" fill="white"/>
</clipPath>
</defs>
</svg>
