<svg width="30" height="30" viewBox="0 0 30 30" fill="none" xmlns="http://www.w3.org/2000/svg">
<g clip-path="url(#clip0_82_62)">
<path d="M14.9991 1.47673e-05C18.4708 -0.000977589 21.8353 1.20188 24.5195 3.40362C27.2037 5.60535 29.0413 8.66972 29.7193 12.0745C30.3973 15.4794 29.8737 19.0139 28.2377 22.0759C26.6017 25.1379 23.9545 27.5379 20.7473 28.8669C17.5401 30.1958 13.9712 30.3715 10.649 29.3641C7.32672 28.3566 4.45659 26.2283 2.5277 23.3418C0.5988 20.4553 -0.26951 16.9893 0.0707337 13.5343C0.410977 10.0794 1.93872 6.84931 4.39362 4.39455C5.78443 2.99911 7.43744 1.89246 9.25754 1.13827C11.0776 0.384083 13.0289 -0.00275484 14.9991 1.47673e-05V1.47673e-05ZM15.5191 11.8775C15.4431 11.8697 15.3693 11.8473 15.3018 11.8115C15.2352 11.7753 15.1763 11.7264 15.1285 11.6675V11.6675C15.0847 11.6123 15.0516 11.5493 15.0308 11.4819C15.0105 11.4156 15.0022 11.3461 15.0064 11.2769V11.2305C15.0162 11.1592 15.0394 11.0905 15.0748 11.0278C15.1109 10.9654 15.1581 10.91 15.2139 10.8643V10.8643C15.2693 10.8201 15.3322 10.7862 15.3995 10.7642V10.7642C15.4655 10.7425 15.5353 10.7342 15.6046 10.7398H15.6461C15.8692 10.7637 16.0903 10.8037 16.3077 10.8594C16.5157 10.9116 16.7191 10.981 16.9156 11.0669C17.2968 11.2312 17.6438 11.4656 17.9385 11.7578C18.0838 11.9033 18.2154 12.0618 18.3316 12.2315C18.4495 12.4051 18.5516 12.5889 18.6368 12.7808C18.723 12.9747 18.7925 13.1756 18.8443 13.3814C18.8978 13.6015 18.9361 13.825 18.9591 14.0503C18.9673 14.1254 18.9605 14.2015 18.9391 14.274C18.9178 14.3465 18.8822 14.414 18.8345 14.4727V14.4727C18.7874 14.53 18.7293 14.5773 18.6636 14.6118C18.5973 14.6487 18.5243 14.672 18.4488 14.6802C18.3773 14.6854 18.3054 14.678 18.2364 14.6582C18.1637 14.6361 18.0958 14.6005 18.0362 14.5532V14.5532C17.9802 14.5058 17.933 14.4488 17.897 14.3848C17.857 14.3158 17.8312 14.2394 17.8214 14.1602V14.1602C17.8051 13.9957 17.7774 13.8325 17.7384 13.6719C17.7021 13.5239 17.6531 13.3793 17.5919 13.2398C17.4825 12.9841 17.326 12.7514 17.1304 12.5537C17.0338 12.4585 16.9283 12.3727 16.8155 12.2974C16.6981 12.2196 16.5739 12.1526 16.4444 12.0972V12.0972C16.3053 12.0371 16.1616 11.9881 16.0147 11.9507C15.8542 11.9107 15.691 11.8821 15.5264 11.8652L15.5191 11.8775ZM16.1295 9.24318H16.0953C16.0252 9.23591 15.9573 9.21519 15.8951 9.18214V9.18214C15.8345 9.14942 15.78 9.10647 15.734 9.05519V9.05519C15.6855 8.99838 15.6483 8.93295 15.6241 8.86232C15.5987 8.79283 15.5879 8.71887 15.5924 8.64503V8.60109C15.6 8.53221 15.6198 8.46525 15.6509 8.40333V8.40333C15.6826 8.34198 15.7248 8.28662 15.7755 8.23976C15.8307 8.1923 15.8945 8.15584 15.9634 8.13234C16.0346 8.10685 16.1102 8.09606 16.1856 8.1006C16.5755 8.12347 16.9632 8.17571 17.3453 8.25685C17.6997 8.33126 18.0469 8.43665 18.3829 8.57179C18.7023 8.703 19.0075 8.86661 19.2935 9.06007C19.8505 9.4296 20.321 9.91513 20.6729 10.4834C20.8531 10.7761 21.0036 11.0861 21.1221 11.4087C21.2456 11.7491 21.3395 12.0995 21.4029 12.4561C21.4707 12.8408 21.5099 13.2301 21.5201 13.6206V13.6426C21.522 13.7153 21.5087 13.7877 21.481 13.855C21.4385 13.9579 21.3674 14.0464 21.2761 14.11C21.1848 14.1736 21.0771 14.2097 20.9659 14.2139H20.939C20.8679 14.2129 20.7976 14.1988 20.7315 14.1724C20.6623 14.1459 20.599 14.106 20.5454 14.0548C20.4917 14.0037 20.4488 13.9424 20.419 13.8745C20.3871 13.8056 20.3697 13.7308 20.3677 13.6548C20.36 13.3274 20.3281 13.001 20.2725 12.6782C20.2226 12.3866 20.1475 12.0999 20.0479 11.8213C19.9571 11.5662 19.8409 11.3209 19.7012 11.0889C19.5683 10.87 19.4111 10.6669 19.2325 10.4834C19.0551 10.2993 18.8578 10.1355 18.6441 9.99513C18.4186 9.84791 18.179 9.72359 17.9288 9.62404V9.62404C17.6585 9.51733 17.379 9.43561 17.0938 9.3799C16.7782 9.315 16.4584 9.27257 16.1368 9.25294L16.1295 9.24318ZM11.2467 14.668C11.6973 15.5064 12.2527 16.2841 12.8995 16.9824C13.6539 17.7723 14.5394 18.4257 15.5167 18.9136C15.5524 18.9297 15.591 18.938 15.6302 18.938C15.6693 18.938 15.708 18.9297 15.7437 18.9136C15.8634 18.8596 15.9706 18.7814 16.0587 18.6841C16.1646 18.577 16.264 18.4637 16.3565 18.3447C16.7764 17.7905 17.2965 17.1045 18.0313 17.4463L18.0777 17.4707L20.5191 18.8818L20.5435 18.8965C20.6939 19.0045 20.8149 19.1485 20.8955 19.3152C20.9761 19.4819 21.0137 19.6661 21.005 19.8511C20.989 20.2819 20.8647 20.7017 20.6436 21.0718C20.3747 21.5385 19.9606 21.9046 19.4644 22.1143C18.9975 22.3154 18.5042 22.4485 17.9996 22.5098C17.2546 22.6201 16.4942 22.5566 15.7779 22.3242C14.9963 22.0576 14.2515 21.6934 13.5611 21.2402L13.5025 21.2012C13.1387 20.9766 12.7481 20.7324 12.3624 20.4468C10.8275 19.2877 9.5428 17.8303 8.58552 16.1621C7.80183 14.7437 7.36481 13.2129 7.60896 11.7554C7.70472 10.9765 8.08569 10.2606 8.67829 9.74611C8.97907 9.51561 9.32237 9.34672 9.68852 9.24911C10.0547 9.1515 10.4365 9.12708 10.8121 9.17726C10.8628 9.18128 10.9117 9.1979 10.9543 9.22561C10.9969 9.25332 11.032 9.29125 11.0562 9.33595L12.6285 11.9922C12.7336 12.1124 12.802 12.2604 12.8253 12.4184C12.8487 12.5764 12.8261 12.7378 12.7603 12.8833C12.623 13.1569 12.4158 13.3893 12.1597 13.5571C12.0743 13.6279 11.9742 13.7012 11.8692 13.7793C11.5152 14.0235 11.1173 14.3286 11.254 14.6753L11.2467 14.668ZM23.8907 6.10353C21.831 4.05015 19.1231 2.77433 16.2283 2.49337C13.3336 2.21241 10.4309 2.94371 8.01476 4.56268C5.59864 6.18166 3.81849 8.58818 2.97755 11.3723C2.13661 14.1565 2.28689 17.1461 3.40278 19.8319C4.51867 22.5177 6.53115 24.7336 9.09745 26.1021C11.6637 27.4707 14.6251 27.9072 17.4771 27.3374C20.3292 26.7676 22.8954 25.2266 24.7388 22.977C26.5823 20.7275 27.5888 17.9084 27.587 15C27.5885 13.3466 27.2627 11.7092 26.6283 10.1822C25.9939 8.65532 25.0635 7.26911 23.8907 6.10353V6.10353Z" fill="#BDFB2C"/>
</g>
<defs>
<clipPath id="clip0_82_62">
<rect width="30" height="30" fill="white"/>
</clipPath>
</defs>
</svg>
