<svg width="32" height="32" viewBox="0 0 32 32" fill="none" xmlns="http://www.w3.org/2000/svg">
<g clip-path="url(#clip0_82_66)">
<path d="M15.9994 1.57518e-05C19.7025 -0.00104276 23.2914 1.28201 26.1545 3.63053C29.0176 5.97905 30.9778 9.24771 31.701 12.8795C32.4242 16.5113 31.8656 20.2815 30.1206 23.5477C28.3755 26.8138 25.5518 29.3738 22.1308 30.7913C18.7097 32.2089 14.903 32.3963 11.3593 31.3217C7.81551 30.247 4.75405 27.9768 2.69656 24.8979C0.639066 21.819 -0.287131 18.1219 0.0757951 14.4366C0.438721 10.7513 2.06831 7.30593 4.68688 4.68752C6.1704 3.19905 7.93361 2.01862 9.87506 1.21416C11.8165 0.409688 13.8979 -0.0029385 15.9994 1.57518e-05V1.57518e-05ZM8.39 20.6745L13.5671 15.4844L8.39 11.263V20.6745ZM14.1374 15.9479L8.79886 21.2995H23.153L18.0541 15.9479L16.3718 17.3828C16.3057 17.437 16.2229 17.4666 16.1374 17.4666C16.0519 17.4666 15.9691 17.437 15.903 17.3828L14.1374 15.9427V15.9479ZM18.6114 15.474L23.6088 20.7162V11.2162L18.6114 15.474ZM8.85354 10.7005L16.1192 16.6276L23.0853 10.7005H8.85354ZM25.8848 6.10679C23.596 3.81867 20.5846 2.3949 17.3638 2.07805C14.143 1.76119 10.9119 2.57085 8.2211 4.36909C5.53029 6.16732 3.54619 8.84289 2.60683 11.9399C1.66747 15.037 1.83096 18.3639 3.06947 21.354C4.30797 24.344 6.54485 26.8121 9.39902 28.3379C12.2532 29.8636 15.5481 30.3525 18.7223 29.7214C21.8965 29.0903 24.7538 27.3781 26.8072 24.8766C28.8606 22.3751 29.9832 19.239 29.9838 16.0026C29.9863 14.1644 29.6255 12.3438 28.9221 10.6456C28.2186 8.94727 27.1864 7.40479 25.8848 6.10679V6.10679Z" fill="#BDFB2C"/>
</g>
<defs>
<clipPath id="clip0_82_66">
<rect width="32" height="32" fill="white"/>
</clipPath>
</defs>
</svg>
