<svg width="25" height="33" viewBox="0 0 25 33" fill="none" xmlns="http://www.w3.org/2000/svg">
<g clip-path="url(#clip0_82_64)">
<path fill-rule="evenodd" clip-rule="evenodd" d="M12.5021 6.46622C13.7178 6.46622 14.9062 6.82454 15.917 7.49588C16.9278 8.16721 17.7156 9.1214 18.1809 10.2378C18.6461 11.3542 18.7678 12.5826 18.5306 13.7678C18.2935 14.9529 17.7081 16.0415 16.8484 16.896C15.9888 17.7504 14.8936 18.3323 13.7012 18.5681C12.5089 18.8038 11.273 18.6828 10.1499 18.2204C9.02671 17.758 8.06673 16.9749 7.39133 15.9702C6.71593 14.9654 6.35543 13.7842 6.35543 12.5758C6.35543 10.9555 7.00302 9.40146 8.15575 8.25569C9.30847 7.10991 10.8719 6.46622 12.5021 6.46622V6.46622ZM12.8695 31.0712C14.5003 30.0237 15.9871 28.7697 17.2924 27.341C20.0582 24.3492 21.9752 20.6811 22.8474 16.7116C23.6066 13.0404 23.2527 9.4606 21.564 6.68375C21.0736 5.88118 20.4704 5.15231 19.7727 4.5192C17.7301 2.66617 15.4012 1.78263 13.0316 1.76114C10.5568 1.74235 8.04407 2.68497 5.82317 4.43058C4.90657 5.15032 4.11834 6.01823 3.49149 6.99796C1.93254 9.43912 1.46242 12.4684 1.97577 15.64C2.49992 18.8627 4.04537 22.2492 6.50673 25.308C8.31236 27.5471 10.4592 29.4917 12.8695 31.0712V31.0712ZM18.6082 28.5307C17.0794 30.2001 15.3212 31.6467 13.3856 32.8275C13.2416 32.9333 13.0688 32.9933 12.8898 32.9995C12.7109 33.0057 12.5343 32.958 12.3832 32.8625C9.61821 31.1289 7.16214 28.9508 5.11529 26.4171C2.4675 23.1112 0.792369 19.4347 0.224985 15.9167C-0.35861 12.3234 0.189862 8.86173 1.98928 6.04996C2.7239 4.90476 3.64627 3.88991 4.71812 3.04752C7.25514 1.03873 10.1596 -0.0247434 13.0479 -0.000573535C15.8334 0.0235964 18.5866 1.05216 20.9669 3.22208C21.7907 3.96933 22.5023 4.83034 23.0797 5.77872C25.0116 8.94767 25.433 12.984 24.5847 17.0714C23.6481 21.3521 21.5858 25.3091 18.6082 28.5387V28.5307Z" fill="#BDFB2C"/>
</g>
<defs>
<clipPath id="clip0_82_64">
<rect width="25" height="33" fill="white"/>
</clipPath>
</defs>
</svg>
