<svg width="795" height="400" viewBox="0 0 795 400" fill="none" xmlns="http://www.w3.org/2000/svg">
<path d="M0.8125 146.328H99.5312V191.891H60.0156V235.062H97V278.375H60.0156V328.438H103.469V374H0.8125V146.328ZM144.32 260.164V351.219H162.32V374H114.719V260.164H144.32ZM169.562 260.164H218.922V282.945H199.164V304.531H217.656V326.188H199.164V351.219H220.891V374H169.562V260.164ZM287.125 260.164V282.945H269.547V374H239.945V282.945H222.438V260.164H287.125ZM293.875 260.164H314.828C328.797 260.164 338.242 260.703 343.164 261.781C348.133 262.859 352.164 265.625 355.258 270.078C358.398 274.484 359.969 281.539 359.969 291.242C359.969 300.102 358.867 306.055 356.664 309.102C354.461 312.148 350.125 313.977 343.656 314.586C349.516 316.039 353.453 317.984 355.469 320.422C357.484 322.859 358.727 325.109 359.195 327.172C359.711 329.188 359.969 334.789 359.969 343.977V374H332.477V336.172C332.477 330.078 331.984 326.305 331 324.852C330.062 323.398 327.555 322.672 323.477 322.672V374H293.875V260.164ZM323.477 279.641V304.953C326.805 304.953 329.125 304.508 330.438 303.617C331.797 302.68 332.477 299.703 332.477 294.688V288.43C332.477 284.82 331.82 282.453 330.508 281.328C329.242 280.203 326.898 279.641 323.477 279.641ZM439.141 326.82C439.141 338.258 438.859 346.367 438.297 351.148C437.781 355.883 436.094 360.219 433.234 364.156C430.422 368.094 426.602 371.117 421.773 373.227C416.945 375.336 411.32 376.391 404.898 376.391C398.805 376.391 393.32 375.406 388.445 373.438C383.617 371.422 379.727 368.422 376.773 364.438C373.82 360.453 372.062 356.117 371.5 351.43C370.938 346.742 370.656 338.539 370.656 326.82V307.344C370.656 295.906 370.914 287.82 371.43 283.086C371.992 278.305 373.68 273.945 376.492 270.008C379.352 266.07 383.195 263.047 388.023 260.938C392.852 258.828 398.477 257.773 404.898 257.773C410.992 257.773 416.453 258.781 421.281 260.797C426.156 262.766 430.07 265.742 433.023 269.727C435.977 273.711 437.734 278.047 438.297 282.734C438.859 287.422 439.141 295.625 439.141 307.344V326.82ZM409.539 289.414C409.539 284.117 409.234 280.742 408.625 279.289C408.062 277.789 406.867 277.039 405.039 277.039C403.492 277.039 402.297 277.648 401.453 278.867C400.656 280.039 400.258 283.555 400.258 289.414V342.57C400.258 349.18 400.516 353.258 401.031 354.805C401.594 356.352 402.859 357.125 404.828 357.125C406.844 357.125 408.133 356.234 408.695 354.453C409.258 352.672 409.539 348.43 409.539 341.727V289.414ZM405.461 247.367L397.164 256.578H377.477L395.547 236.75H415.375L432.32 256.578H413.266L405.461 247.367ZM516.344 260.164V374H490.398L475 322.25V374H450.25V260.164H475L491.594 311.422V260.164H516.344ZM557.898 260.164V374H528.297V260.164H557.898ZM638.898 309.805H609.297V289.977C609.297 284.211 608.969 280.625 608.312 279.219C607.703 277.766 606.32 277.039 604.164 277.039C601.727 277.039 600.18 277.906 599.523 279.641C598.867 281.375 598.539 285.125 598.539 290.891V343.766C598.539 349.297 598.867 352.906 599.523 354.594C600.18 356.281 601.656 357.125 603.953 357.125C606.156 357.125 607.586 356.281 608.242 354.594C608.945 352.906 609.297 348.945 609.297 342.711V328.438H638.898V332.867C638.898 344.633 638.055 352.977 636.367 357.898C634.727 362.82 631.047 367.133 625.328 370.836C619.656 374.539 612.648 376.391 604.305 376.391C595.633 376.391 588.484 374.82 582.859 371.68C577.234 368.539 573.508 364.203 571.68 358.672C569.852 353.094 568.938 344.727 568.938 333.57V300.312C568.938 292.109 569.219 285.969 569.781 281.891C570.344 277.766 572.008 273.805 574.773 270.008C577.586 266.211 581.453 263.234 586.375 261.078C591.344 258.875 597.039 257.773 603.461 257.773C612.18 257.773 619.375 259.461 625.047 262.836C630.719 266.211 634.445 270.43 636.227 275.492C638.008 280.508 638.898 288.336 638.898 298.977V309.805ZM700.633 260.164L717.578 374H687.273L685.797 353.539H675.18L673.422 374H642.766L657.812 260.164H700.633ZM684.953 333.359C683.453 320.469 681.953 304.555 680.453 285.617C677.453 307.367 675.578 323.281 674.828 333.359H684.953Z" fill="white"/>
<path d="M144.812 0.328125H203.875C222.531 0.328125 236.641 1.78125 246.203 4.6875C255.859 7.59375 263.641 13.5 269.547 22.4062C275.453 31.2188 278.406 45.4688 278.406 65.1562C278.406 78.4688 276.297 87.75 272.078 93C267.953 98.25 259.75 102.281 247.469 105.094C261.156 108.188 270.438 113.344 275.312 120.562C280.188 127.688 282.625 138.656 282.625 153.469V174.562C282.625 189.938 280.844 201.328 277.281 208.734C273.812 216.141 268.234 221.203 260.547 223.922C252.859 226.641 237.109 228 213.297 228H144.812V0.328125ZM204.016 39.2812V89.9062C206.547 89.8125 208.516 89.7656 209.922 89.7656C215.734 89.7656 219.438 88.3594 221.031 85.5469C222.625 82.6406 223.422 74.4375 223.422 60.9375C223.422 53.8125 222.766 48.8438 221.453 46.0312C220.141 43.125 218.406 41.2969 216.25 40.5469C214.188 39.7969 210.109 39.375 204.016 39.2812ZM204.016 125.344V189.047C212.359 188.766 217.656 187.453 219.906 185.109C222.25 182.766 223.422 177 223.422 167.812V146.578C223.422 136.828 222.391 130.922 220.328 128.859C218.266 126.797 212.828 125.625 204.016 125.344ZM298.094 114.164H347.453V136.945H327.695V158.531H346.188V180.188H327.695V205.219H349.422V228H298.094V114.164ZM407.5 114.164V136.945L385.422 205.219H407.5V228H352.938V211.477L375.719 136.945H355.609V114.164H407.5ZM415.234 114.164H464.594V136.945H444.836V158.531H463.328V180.188H444.836V205.219H466.562V228H415.234V114.164ZM475.141 114.164H496.094C510.062 114.164 519.508 114.703 524.43 115.781C529.398 116.859 533.43 119.625 536.523 124.078C539.664 128.484 541.234 135.539 541.234 145.242C541.234 154.102 540.133 160.055 537.93 163.102C535.727 166.148 531.391 167.977 524.922 168.586C530.781 170.039 534.719 171.984 536.734 174.422C538.75 176.859 539.992 179.109 540.461 181.172C540.977 183.188 541.234 188.789 541.234 197.977V228H513.742V190.172C513.742 184.078 513.25 180.305 512.266 178.852C511.328 177.398 508.82 176.672 504.742 176.672V228H475.141V114.164ZM504.742 133.641V158.953C508.07 158.953 510.391 158.508 511.703 157.617C513.062 156.68 513.742 153.703 513.742 148.688V142.43C513.742 138.82 513.086 136.453 511.773 135.328C510.508 134.203 508.164 133.641 504.742 133.641ZM552.766 114.164H573.719C587.688 114.164 597.133 114.703 602.055 115.781C607.023 116.859 611.055 119.625 614.148 124.078C617.289 128.484 618.859 135.539 618.859 145.242C618.859 154.102 617.758 160.055 615.555 163.102C613.352 166.148 609.016 167.977 602.547 168.586C608.406 170.039 612.344 171.984 614.359 174.422C616.375 176.859 617.617 179.109 618.086 181.172C618.602 183.188 618.859 188.789 618.859 197.977V228H591.367V190.172C591.367 184.078 590.875 180.305 589.891 178.852C588.953 177.398 586.445 176.672 582.367 176.672V228H552.766V114.164ZM582.367 133.641V158.953C585.695 158.953 588.016 158.508 589.328 157.617C590.688 156.68 591.367 153.703 591.367 148.688V142.43C591.367 138.82 590.711 136.453 589.398 135.328C588.133 134.203 585.789 133.641 582.367 133.641ZM681.508 114.164L698.453 228H668.148L666.672 207.539H656.055L654.297 228H623.641L638.688 114.164H681.508ZM665.828 187.359C664.328 174.469 662.828 158.555 661.328 139.617C658.328 161.367 656.453 177.281 655.703 187.359H665.828Z" fill="white"/>
</svg>
