<svg width="352" height="337" viewBox="0 0 352 337" fill="none" xmlns="http://www.w3.org/2000/svg">
<path fill-rule="evenodd" clip-rule="evenodd" d="M204.503 296.512H214.93V277.027H204.503V296.512ZM17.2734 0H334.698C339.424 0 343.75 1.94847 346.872 5.07176C350.023 8.22371 351.971 12.5505 351.971 17.2784V319.693C351.971 324.45 350.023 328.776 346.901 331.928C343.779 335.052 339.453 337 334.698 337H17.2734C12.5182 337 8.19271 335.052 5.07031 331.928C1.94792 328.805 0 324.45 0 319.693V17.2784C0 12.5505 1.94792 8.22371 5.09896 5.07176C8.25 1.94847 12.5469 0 17.2734 0ZM330.43 21.5765H21.5703V155.477H52.1641V143.901C51.8776 143.786 51.6198 143.614 51.3906 143.471C50.9323 143.184 50.5026 142.84 50.1302 142.496L50.1016 142.439C49.4427 141.809 48.9271 141.006 48.5547 140.147C48.2109 139.287 48.0104 138.342 48.0104 137.367C48.0104 136.365 48.2109 135.448 48.5547 134.588C48.9271 133.7 49.4714 132.897 50.1302 132.181C50.7891 131.522 51.5911 130.978 52.4792 130.605C53.3672 130.261 54.2839 130.061 55.2578 130.061C56.2604 130.061 57.1771 130.261 58.0365 130.605C58.9245 130.978 59.7266 131.522 60.4141 132.181C61.0729 132.869 61.6172 133.642 61.9896 134.531L62.0182 134.588C62.362 135.419 62.5625 136.365 62.5625 137.31C62.5625 138.284 62.362 139.23 62.0182 140.09C61.6458 140.978 61.1016 141.78 60.4427 142.439L60.3854 142.496C60.0417 142.812 59.6979 143.127 59.2969 143.385C59.0677 143.528 58.8672 143.671 58.638 143.757V158.686C58.638 159.574 58.2656 160.405 57.6927 160.978C57.0911 161.551 56.2891 161.924 55.401 161.924H21.5703V171.666H69.151C69.2656 171.408 69.4089 171.179 69.5521 170.95L69.5807 170.921C69.8672 170.491 70.1823 170.119 70.526 169.775C71.2135 169.116 71.987 168.572 72.9037 168.199L72.9609 168.17C73.8203 167.827 74.737 167.626 75.6823 167.626C76.6563 167.626 77.6016 167.827 78.4609 168.17C79.349 168.543 80.1797 169.087 80.8099 169.746C81.4688 170.406 82.013 171.208 82.3854 172.096C82.7292 172.984 82.9297 173.901 82.9297 174.876C82.9297 175.878 82.7292 176.795 82.3854 177.655C82.013 178.543 81.4688 179.346 80.8099 180.005C80.1224 180.664 79.349 181.208 78.4609 181.581L78.4037 181.609C77.5443 181.953 76.6276 182.154 75.6823 182.154C74.6797 182.154 73.763 181.953 72.9037 181.609C72.0156 181.237 71.2135 180.692 70.526 180.033C70.1823 179.689 69.8385 179.288 69.5807 178.83C69.4375 178.601 69.2943 178.343 69.1797 178.113H21.5703V189.346H75.3099C76.1979 189.346 77 189.718 77.6016 190.291C78.2031 190.864 78.5469 191.667 78.5469 192.584V216.624C78.8333 216.739 79.1484 216.911 79.4349 217.083C79.9219 217.398 80.4089 217.742 80.8099 218.172C81.4688 218.859 82.013 219.633 82.3854 220.521L82.4141 220.579C82.7578 221.438 82.9297 222.355 82.9297 223.301C82.9297 224.275 82.7292 225.221 82.3854 226.08C82.013 226.969 81.4688 227.771 80.8099 228.487C80.151 229.146 79.349 229.691 78.4609 230.063C77.5729 230.407 76.6563 230.608 75.6823 230.608C74.7083 230.608 73.763 230.407 72.9037 230.063C72.0156 229.691 71.2135 229.146 70.5547 228.487C69.8958 227.828 69.3516 227.026 68.9792 226.138C68.6354 225.278 68.4349 224.332 68.4349 223.358C68.4349 222.355 68.6354 221.438 68.9792 220.579C69.3516 219.69 69.8958 218.859 70.5547 218.2C70.8698 217.885 71.1849 217.627 71.5573 217.369C71.7292 217.255 71.9297 217.14 72.1016 217.026V195.879H21.5703V205.048H49.901C50.7891 205.048 51.5911 205.421 52.1641 205.994C52.7656 206.596 53.1094 207.398 53.1094 208.286V221.152C53.3385 221.266 53.5677 221.381 53.7969 221.524C54.2266 221.811 54.6276 222.126 54.9714 222.47L55.0286 222.527C55.6589 223.186 56.1745 223.989 56.5469 224.848C56.8906 225.708 57.0911 226.653 57.0911 227.628C57.0911 228.63 56.8906 229.547 56.5469 230.407L56.5182 230.464C56.1458 231.353 55.6302 232.126 54.9714 232.785L54.9141 232.814C54.2552 233.473 53.4531 233.989 52.5938 234.361C51.763 234.762 50.8177 234.963 49.8438 234.963C48.8698 234.963 47.9245 234.762 47.0651 234.419C46.1771 234.046 45.3464 233.502 44.7161 232.843L44.6589 232.785C44.0286 232.126 43.513 231.324 43.1406 230.464C42.7969 229.576 42.5964 228.659 42.5964 227.685C42.5964 226.711 42.7969 225.794 43.1406 224.934C43.513 224.046 44.0573 223.215 44.7161 222.584C45.0885 222.183 45.4896 221.868 45.9479 221.582C46.1771 221.41 46.4349 221.295 46.6927 221.152V211.581H21.5703V315.424H69.9245V284.62H58.3802C58.237 284.878 58.0938 285.165 57.9505 285.394C57.6641 285.853 57.3203 286.282 56.9766 286.626L56.9193 286.655C56.2891 287.314 55.487 287.83 54.6276 288.202C53.7682 288.546 52.8229 288.747 51.849 288.747C50.8464 288.747 49.9297 288.546 49.0703 288.202C48.1823 287.83 47.3802 287.285 46.6641 286.626C46.0052 285.967 45.4609 285.165 45.0885 284.277C44.7448 283.388 44.5443 282.471 44.5443 281.497C44.5443 280.494 44.7448 279.577 45.0885 278.718C45.4609 277.829 46.0052 277.027 46.6641 276.368C47.3516 275.709 48.125 275.165 49.013 274.792L49.0703 274.763C49.901 274.42 50.8464 274.219 51.7917 274.219C52.7656 274.219 53.7109 274.42 54.5703 274.763C55.4583 275.136 56.2604 275.68 56.9193 276.339L56.9766 276.397C57.3203 276.741 57.6068 277.084 57.8646 277.486C58.0078 277.715 58.151 277.915 58.237 278.145H73.1615C74.0495 278.145 74.8802 278.517 75.4531 279.09C76.026 279.692 76.3984 280.494 76.3984 281.383V315.424H86.138V267.6C85.8802 267.485 85.651 267.342 85.4219 267.199H85.3932C84.9635 266.912 84.5912 266.597 84.2474 266.253C83.5885 265.566 83.0443 264.792 82.6719 263.904L82.6432 263.846C82.2995 262.987 82.099 262.07 82.099 261.096C82.099 260.121 82.2995 259.176 82.6432 258.316C83.0156 257.428 83.5599 256.597 84.2188 255.966C84.8776 255.307 85.6797 254.763 86.5677 254.39C87.4557 254.047 88.3724 253.846 89.3464 253.846C90.349 253.846 91.2656 254.047 92.125 254.39C93.013 254.763 93.8151 255.307 94.474 255.966C95.1328 256.654 95.6771 257.428 96.0495 258.316L96.0781 258.373C96.4219 259.233 96.5938 260.15 96.5938 261.096C96.5938 262.098 96.3932 263.015 96.0495 263.875C95.6771 264.763 95.1328 265.566 94.474 266.225C94.1302 266.568 93.7292 266.912 93.2708 267.17C93.0417 267.313 92.7839 267.457 92.5547 267.571V315.366H103.784V261.439C103.784 260.551 104.156 259.749 104.729 259.147C105.302 258.545 106.104 258.201 107.021 258.201H131.055C131.198 257.915 131.341 257.6 131.513 257.313C131.828 256.826 132.201 256.339 132.602 255.938C133.289 255.279 134.063 254.734 134.951 254.362L135.008 254.333C135.867 253.989 136.784 253.817 137.729 253.817C138.703 253.817 139.648 254.018 140.508 254.362C141.396 254.734 142.198 255.279 142.914 255.938C143.573 256.597 144.117 257.399 144.49 258.287C144.833 259.176 145.034 260.093 145.034 261.067C145.034 262.07 144.833 262.987 144.49 263.846C144.117 264.735 143.573 265.537 142.914 266.196C142.255 266.855 141.453 267.399 140.565 267.772C139.706 268.116 138.76 268.316 137.786 268.316C136.784 268.316 135.867 268.116 135.008 267.772C134.12 267.399 133.318 266.855 132.63 266.196C132.315 265.881 132.057 265.566 131.799 265.193C131.685 265.021 131.57 264.821 131.456 264.649H110.315V315.366H119.482V286.827C119.482 285.939 119.854 285.136 120.427 284.563C121.029 283.961 121.831 283.618 122.719 283.618H135.581C135.695 283.388 135.81 283.159 135.982 282.93C136.268 282.5 136.583 282.099 136.927 281.755L136.984 281.698C137.643 281.067 138.417 280.552 139.305 280.179C140.164 279.835 141.109 279.635 142.083 279.635C143.057 279.635 144.003 279.835 144.862 280.179L144.919 280.208C145.807 280.58 146.581 281.096 147.24 281.755L147.268 281.812C147.927 282.471 148.443 283.245 148.815 284.105C149.159 284.964 149.359 285.91 149.359 286.884C149.359 287.858 149.159 288.804 148.815 289.664C148.443 290.552 147.898 291.383 147.24 292.013L147.182 292.07C146.523 292.701 145.721 293.217 144.862 293.589C143.974 293.933 143.057 294.134 142.083 294.134C141.109 294.134 140.164 293.933 139.305 293.589C138.417 293.217 137.586 292.672 136.956 292.013C136.583 291.641 136.24 291.24 135.953 290.781C135.781 290.552 135.667 290.294 135.523 290.036H125.956V315.309H330.401V21.5765H330.43ZM94.0443 113.499H98.1406V102.753H94.0443V113.499ZM47.9818 113.499H52.0781V102.753H47.9818V113.499ZM47.2943 52.838H68.8646C69.8099 52.838 70.612 53.6117 70.612 54.5859V97.4237C70.612 98.3693 69.8099 99.1429 68.8646 99.1429H47.2943C46.349 99.1429 45.5469 98.3693 45.5469 97.4237V54.5573C45.5469 53.583 46.349 52.838 47.2943 52.838ZM64.7396 38.3104H68.1198V49.0557H64.7396V38.3104ZM56.7188 38.3104H60.099V49.0557H56.7188V38.3104ZM47.9818 38.3104H52.0781V49.0557H47.9818V38.3104ZM64.7396 113.499H68.1198V102.753H64.7396V113.499ZM56.7188 113.499H60.099V102.753H56.7188V113.499ZM93.3568 52.838H114.927C115.901 52.838 116.646 53.6117 116.646 54.5859V97.4237C116.646 98.3693 115.872 99.1429 114.927 99.1429H93.3568C92.4115 99.1429 91.638 98.3693 91.638 97.4237V54.5573C91.6094 53.583 92.4115 52.838 93.3568 52.838ZM110.802 38.3104H114.211V49.0557H110.802V38.3104ZM102.781 38.3104H106.161V49.0557H102.781V38.3104ZM94.0443 38.3104H98.1406V49.0557H94.0443V38.3104ZM110.802 113.499H114.211V102.753H110.802V113.499ZM102.781 113.499H106.161V102.753H102.781V113.499ZM147.125 50.0299C147.125 48.4826 148.844 47.1932 150.992 47.1932C153.141 47.1932 154.859 48.454 154.859 50.0299V144.101C154.859 145.648 153.141 146.938 150.992 146.938C148.844 146.938 147.125 145.677 147.125 144.101V50.0299ZM172.419 49.6574V53.9555H187V49.6574H172.419ZM172.419 115.132V119.459H187V115.132H172.419ZM293.333 111.149V124.158C293.333 125.161 292.503 125.992 291.5 125.992H191.039C190.008 125.992 189.206 125.161 189.206 124.158V111.149C189.206 110.146 190.008 109.315 191.039 109.315H291.5C292.503 109.315 293.333 110.146 293.333 111.149ZM307.026 115.132V119.459H295.711V115.132H307.026ZM172.419 82.3803V86.7071H187V82.3803H172.419ZM293.333 78.4261V91.4063C293.333 92.4379 292.503 93.2402 291.5 93.2402H191.039C190.008 93.2402 189.206 92.4379 189.206 91.4063V78.4261C189.206 77.3945 190.008 76.5922 191.039 76.5922H291.5C292.503 76.5922 293.333 77.3945 293.333 78.4261ZM307.026 82.3803V86.7071H295.711V82.3803H307.026ZM293.333 45.6745V58.6834C293.333 59.6863 292.503 60.5173 291.5 60.5173H191.039C190.008 60.5173 189.206 59.6863 189.206 58.6834V45.6745C189.206 44.6716 190.008 43.8407 191.039 43.8407H291.5C292.503 43.8407 293.333 44.643 293.333 45.6745ZM307.026 49.6574V53.9555H295.711V49.6574H307.026ZM198.802 191.867H269.557C271.964 191.867 273.969 193.844 273.969 196.28V267.285C273.969 269.72 271.992 271.697 269.557 271.697H198.802C196.367 271.697 194.391 269.72 194.391 267.285V196.251C194.391 193.844 196.367 191.867 198.802 191.867ZM217.422 212.47H250.909C252.37 212.47 253.573 213.673 253.573 215.134V248.373C253.573 249.834 252.37 251.038 250.909 251.038H217.422C215.961 251.038 214.758 249.834 214.758 248.373V215.134C214.758 213.673 215.961 212.47 217.422 212.47ZM300.438 235.507V244.19H280.958V235.507H300.438ZM300.438 218.917V227.599H280.958V218.917H300.438ZM300.438 252.098V262.528H280.958V252.098H300.438ZM300.438 200.55V210.98H280.958V200.55H300.438ZM170.557 235.507V244.19H190.036V235.507H170.557ZM170.557 218.917V227.599H190.036V218.917H170.557ZM170.557 252.098V262.528H190.036V252.098H170.557ZM170.557 200.55V210.98H190.036V200.55H170.557ZM239.451 166.595H248.13V186.079H239.451V166.595ZM222.865 166.595H231.544V186.079H222.865V166.595ZM256.036 166.595H266.464V186.079H256.036V166.595ZM204.503 166.595H214.93V186.079H204.503V166.595ZM239.451 296.512H248.13V277.027H239.451V296.512ZM222.865 296.512H231.544V277.027H222.865V296.512ZM256.036 296.512H266.464V277.027H256.036V296.512Z" fill="#BDFB2C"/>
</svg>
