<svg width="42" height="65" viewBox="0 0 42 65" fill="none" xmlns="http://www.w3.org/2000/svg">
<path d="M26.5642 64.3388C30.1149 63.3602 33.2952 61.4612 35.8299 58.9274C39.6346 55.1241 41.9947 49.8767 41.9947 44.1003V20.9896C41.9947 15.2132 39.6346 9.96582 35.8299 6.16252C32.0252 2.35921 26.7759 0 20.9974 0C15.2241 0 9.96951 2.35921 6.1648 6.16252C2.36009 9.96582 0 15.2185 0 20.9896V44.0951C0 49.8714 2.36009 55.1188 6.1648 58.9221C9.12284 61.8791 12.9487 63.9632 17.2191 64.7461C19.8014 65.2222 24.1829 64.9947 26.5642 64.3388ZM20.7592 48.6971C22.9553 48.6971 24.7544 46.8986 24.7544 44.7034V40.588C24.7544 38.3927 22.9553 36.5942 20.7592 36.5942C18.5632 36.5942 16.764 38.3927 16.764 40.588V44.7034C16.764 46.8986 18.5579 48.6971 20.7592 48.6971ZM32.3215 55.4203C29.4164 58.3244 25.4053 60.1335 20.9974 60.1335C16.5894 60.1335 12.5836 58.3297 9.67318 55.4203C6.76805 52.5163 4.9583 48.5067 4.9583 44.1003V20.9896C4.9583 16.5833 6.76276 12.5789 9.67318 9.6696C12.5783 6.76554 16.5894 4.95646 20.9974 4.95646C25.4053 4.95646 29.4111 6.76025 32.3215 9.6696C35.2267 12.5736 37.0364 16.5833 37.0364 20.9896V44.0951C37.0364 48.5067 35.232 52.511 32.3215 55.4203Z" fill="#BDFB2C"/>
</svg>
