<svg width="21" height="21" viewBox="0 0 21 21" fill="none" xmlns="http://www.w3.org/2000/svg">
<g clip-path="url(#clip0_77_54)">
<path fill-rule="evenodd" clip-rule="evenodd" d="M17.9375 3.05124C16.9691 2.08043 15.8164 1.31073 14.5466 0.786852C13.2767 0.26297 11.9149 -0.00466169 10.5403 -0.000501552C4.7775 -0.000501552 0.0875 4.66723 0.0875 10.405C0.0873885 12.2311 0.570226 14.025 1.4875 15.6065L0 20.9995L5.544 19.5516C7.07627 20.3828 8.79333 20.8189 10.5385 20.8201V20.8201C12.6074 20.8206 14.6299 20.2105 16.3503 19.0671C18.0706 17.9237 19.4116 16.2983 20.2036 14.3964C20.9956 12.4946 21.2031 10.4018 20.7997 8.38268C20.3963 6.36355 19.4003 4.50879 17.9375 3.05298V3.05298V3.05124ZM10.5438 19.0675C8.98579 19.0667 7.45675 18.6487 6.11713 17.8572L5.79863 17.6683L2.50863 18.5259L3.38363 15.3348L3.178 15.0075C2.03779 13.206 1.60512 11.0494 1.96275 8.95041C2.32039 6.85138 3.44322 4.95725 5.11644 3.63041C6.78965 2.30358 8.89575 1.6372 11.0318 1.75877C13.1679 1.88035 15.1839 2.78133 16.6941 4.28935C17.9106 5.50008 18.739 7.04252 19.0746 8.72168C19.4102 10.4008 19.2379 12.1413 18.5795 13.723C17.9211 15.3048 16.8062 16.6567 15.3757 17.608C13.9452 18.5593 12.2634 19.0672 10.5429 19.0675H10.5438ZM15.3125 12.5843C15.05 12.4529 13.7664 11.826 13.5284 11.7389C13.2904 11.6518 13.1154 11.6074 12.9378 11.8704C12.7601 12.1333 12.2623 12.7158 12.11 12.8908C11.9578 13.0658 11.8046 13.0885 11.5456 12.957C11.2866 12.8255 10.4405 12.5513 9.44563 11.6649C8.8727 11.139 8.38037 10.5324 7.98438 9.86433C7.83125 9.60313 7.96775 9.46295 8.10075 9.33583C8.23375 9.20871 8.36325 9.03283 8.49188 8.88046C8.60065 8.74915 8.68912 8.60242 8.75438 8.44512C8.78911 8.37344 8.80537 8.29429 8.8017 8.2148C8.79804 8.13531 8.77456 8.05797 8.73338 7.98975C8.6625 7.85915 8.1375 6.57925 7.9275 6.05771C7.7175 5.53617 7.49963 5.62237 7.33863 5.61018C7.17763 5.59799 7.01225 5.60234 6.83988 5.60234C6.70699 5.60544 6.57618 5.6359 6.4557 5.69179C6.33523 5.74769 6.22769 5.82781 6.13988 5.92711C5.9045 6.1857 5.22813 6.81694 5.22813 8.09685C5.22813 9.37675 6.1635 10.6114 6.29475 10.7873C6.426 10.9631 8.1375 13.5882 10.7625 14.714C11.3855 14.9805 11.872 15.1407 12.25 15.2643C12.7831 15.4243 13.3461 15.4591 13.895 15.3662C14.3973 15.293 15.4403 14.7384 15.6599 14.1315C15.8795 13.5247 15.8786 12.9997 15.813 12.8961C15.7474 12.7924 15.5776 12.7167 15.3143 12.5835L15.3125 12.5843Z" fill="#535461"/>
</g>
<defs>
<clipPath id="clip0_77_54">
<rect width="21" height="21" fill="white"/>
</clipPath>
</defs>
</svg>
